<?xml version="1.0" encoding="utf-8"?>
<!-- Generator: Adobe Illustrator 26.1.0, SVG Export Plug-In . SVG Version: 6.00 Build 0)  -->
<svg version="1.1" id="Laag_1" xmlns="http://www.w3.org/2000/svg" xmlns:xlink="http://www.w3.org/1999/xlink" x="0px" y="0px"
	 viewBox="0 0 409.46 326.03" style="enable-background:new 0 0 409.46 326.03;" xml:space="preserve">
<style type="text/css">
	.st0{fill:#FFFFFF;}
</style>
<polygon class="st0" points="124,12.43 172,12.43 52.67,157.76 176.67,315.43 124,315.43 5.33,163.02 "/>
<polyline class="st0" points="298,282.76 249.67,282.76 249.67,317.76 298,317.76 "/>
<path class="st0" d="M298,282.76c8.39-0.27,30.91-1.57,45.67-10.33c3.41-2.02,5.55-3.94,6.33-4.67c8.29-7.68,10.6-17.44,12-23.67
	c1.87-8.34,4.9-21.83-2-35.67c-5.15-10.33-13.22-15.64-18.33-19c-13.62-8.95-27.41-10.45-34.67-10.67h-57.33v-35.67
	c22.25,0.5,38.36,0.27,48.33,0c2.9-0.08,7.15-0.21,12.67-1.33c6.58-1.34,18.03-3.67,27.67-13c9.28-8.99,11.91-19.64,13-24.33
	c1.18-5.05,3.42-15.14-0.67-27c-1.02-2.95-4.79-13.43-15.33-21c-8.23-5.91-16.53-7.14-22.33-8c-6.39-0.95-11.83-0.73-15.67-0.33
	l-47.67-0.34V12.43c28.18-0.86,45.74-0.46,56,0c1.55,0.07,3.36,0.16,5.67,0.33c10.37,0.78,23.86,1.79,38,7.33
	c6.79,2.66,16.82,6.71,26.33,16.33c8.06,8.15,11.85,16.36,13,19c3.5,8.06,4.32,14.79,5,20.33c0.41,3.39,1.2,11.42,0,21.67
	c-0.62,5.31-1.44,11.93-4.67,20c-1.33,3.32-3.69,9.09-8.67,15.33c-5.32,6.67-10.81,10.35-15.33,13.33
	c-10.34,6.81-19.56,7.19-19.33,9.33c0.14,1.33,3.64,1.58,8.78,3c8.47,2.34,14.24,5.89,19.11,8.89c3.61,2.22,12.07,7.92,19.11,17.56
	c10.29,14.09,11.79,28.75,12.44,36c1.98,22.08-5.72,38.95-8.89,45.11c-11.05,21.47-28.44,31.6-37.78,36.89
	c-17.38,9.85-36.27,11.85-51.11,13.78c-4.46,0.58-8.18,0.91-10.78,1.11"/>
</svg>
